<svg width="70" height="70" viewBox="0 0 70 70" fill="none" xmlns="http://www.w3.org/2000/svg">
<path d="M30.3527 44.3333H30.3422C28.4091 44.3304 26.8398 45.895 26.8369 47.8281C26.834 49.7611 28.3986 51.3304 30.3317 51.3333H30.3422C32.2752 51.3362 33.8445 49.7716 33.8474 47.8386C33.8503 45.9055 32.2857 44.3362 30.3527 44.3333ZM31.1693 48.6605C30.9497 48.8789 30.6521 49.0012 30.3422 49C29.6979 48.9966 29.1783 48.4716 29.1816 47.8273C29.1832 47.5189 29.3069 47.2237 29.5255 47.0062C29.7426 46.7902 30.0359 46.6683 30.3422 46.6667C30.9865 46.67 31.5061 47.195 31.5027 47.8393C31.5011 48.1477 31.3774 48.4429 31.1588 48.6605H31.1693Z" fill="#2196F3"/>
</svg>
